<?xml version="1.0" encoding="UTF-8" standalone="no"?>
<!-- Created with Inkscape (http://www.inkscape.org/) -->

<svg
   xmlns:dc="http://purl.org/dc/elements/1.1/"
   xmlns:cc="http://creativecommons.org/ns#"
   xmlns:rdf="http://www.w3.org/1999/02/22-rdf-syntax-ns#"
   xmlns:svg="http://www.w3.org/2000/svg"
   xmlns="http://www.w3.org/2000/svg"
   xmlns:sodipodi="http://sodipodi.sourceforge.net/DTD/sodipodi-0.dtd"
   xmlns:inkscape="http://www.inkscape.org/namespaces/inkscape"
   width="138.00101"
   height="223.82201"
   viewBox="0 0 138.001 223.82202"
   version="1.1"
   id="svg8"
   inkscape:version="0.92.2 (5c3e80d, 2017-08-06)"
   sodipodi:docname="blaisck.svg">
  <defs
     id="defs2" />
  <sodipodi:namedview
     id="base"
     pagecolor="#ffffff"
     bordercolor="#666666"
     borderopacity="1.0"
     inkscape:pageopacity="0.0"
     inkscape:pageshadow="2"
     inkscape:zoom="0.35"
     inkscape:cx="-936.42857"
     inkscape:cy="520"
     inkscape:document-units="px"
     inkscape:current-layer="layer1"
     showgrid="false"
     inkscape:window-width="1366"
     inkscape:window-height="715"
     inkscape:window-x="-8"
     inkscape:window-y="-8"
     inkscape:window-maximized="1"
     units="px"
     showborder="false" />
  <metadata
     id="metadata5">
    <rdf:RDF>
      <cc:Work
         rdf:about="">
        <dc:format>image/svg+xml</dc:format>
        <dc:type
           rdf:resource="http://purl.org/dc/dcmitype/StillImage" />
        <dc:title />
      </cc:Work>
    </rdf:RDF>
  </metadata>
  <g
     inkscape:label="Layer 1"
     inkscape:groupmode="layer"
     id="layer1"
     transform="translate(0,-898.69762)">
    <path
       style="fill:#ffffff"
       d="m 132.79104,1121.9013 c -5.80059,1.5538 -10.20338,0.3108 -18.49145,-5.2205 -3.41077,-2.2763 -6.60351,-4.1388 -7.09497,-4.1388 -0.49146,0 -3.68689,-1.8054 -7.10097,-4.012 -3.414076,-2.2066 -8.931526,-5.4691 -12.260996,-7.25 -5.82355,-3.1149 -9.7641,-5.3571 -18.87206,-10.738 -2.32738,-1.375 -5.41015,-3.1129 -6.8506,-3.8621 -1.44045,-0.7492 -4.194,-2.3991 -6.119,-3.6664 -1.925,-1.2674 -6.425,-3.8682 -10,-5.7796 l -6.5,-3.4754 -0.27445,-16.6678 -0.27445,-16.6679 -2.22555,0.6534 c -1.22405,0.3593 -4.51847,2.1445 -7.32093,3.9671 -8.31565,5.4081 -17.1331,9.4987 -20.4748904,9.4987 -2.20903,0 -3.9792,-0.9119 -6.02852,-3.1057 l -2.90120998606,-3.1058 v -71.4439 c 0,-79.48076 -0.23368000394,-76.6473 6.42430998606,-77.89635 4.8702904,-0.91367 9.3298504,0.27828 15.0756904,4.02942 2.75,1.79533 7.475,4.51115 10.5,6.03517 3.025,1.52402 6.85,3.78249 8.5,5.01882 1.65,1.23633 5.86018,3.75998 9.35596,5.60812 6.07672,3.21262 9.79853,5.32067 19.17395,10.86025 2.32711,1.375 5.85988,3.33227 7.8506,4.34948 1.99072,1.01722 5.94575,3.37972 8.78896,5.25 2.8432,1.87029 5.5432,3.40326 6,3.40726 0.45679,0.004 3.96692,2.0287 7.80028,4.5 3.833366,2.47129 7.320866,4.49326 7.749996,4.49326 3.00628,0 -6.078,6.56513 -14.558596,10.52136 -3.76925,1.75838 -3.92293,1.74999 -8.47738,-0.46273 -2.5512,-1.23947 -6.9453,-3.78472 -9.76466,-5.65611 -2.81937,-1.87138 -5.52954,-3.40353 -6.02262,-3.40453 -0.49307,-10e-4 -3.97582,-2.02611 -7.73944,-4.5 -3.76362,-2.4739 -7.36842,-4.49799 -8.01067,-4.49799 -0.64225,0 -4.1863,-2.025 -7.87566,-4.5 -3.68936,-2.475 -7.09839,-4.5 -7.57562,-4.5 -0.47723,0 -3.97886,-2.01537 -7.7814,-4.4786 -3.80253,-2.46323 -7.4762,-4.4882 -8.1637,-4.5 -0.9836,-0.0168 -1.25,10.62408 -1.25,49.9297 v 49.95107 l 3.75,-1.7101 c 2.0625,-0.9406 6.3375,-3.2738 9.5,-5.1848 l 5.75,-3.4745 v -28.26641 c 0,-26.02449 0.42213,-30.62843 2.5,-27.26636 0.33992,0.55 1.21624,1 1.94739,1 0.73115,0 4.52959,2.08517 8.44098,4.63371 l 7.11163,4.63371 v 45.19785 45.1979 l 4.88954,3.1684 c 2.68933,1.7426 5.29793,3.1684 5.79689,3.1684 0.49896,0 3.99032,2.025 7.75857,4.5 3.76826,2.475 7.34716,4.5023 7.95311,4.5043 0.60595,0 3.12673,1.377 5.60173,3.0549 2.475,1.6778 6.975,4.3512 9.999996,5.9408 3.025,1.5897 7.525,4.2631 10,5.9409 2.475,1.6778 5.0625,3.0528 5.75,3.0548 0.98339,0 1.25,-10.6568 1.25,-49.9795 v -49.98382 l -3.75,1.71401 c -2.0625,0.9427 -6.72577,3.63542 -10.36283,5.98381 -3.63705,2.3484 -6.931036,4.2698 -7.319966,4.2698 -0.38892,0 -4.04299,2.025 -8.12015,4.5 -4.07715,2.475 -7.87067,4.5 -8.43003,4.5 -0.6295,0 -1.01419,-4.2866 -1.01019,-11.25 l 0.007,-11.24998 3.24316,-2.19516 c 1.78374,-1.20734 4.14317,-2.52389 5.24317,-2.92566 1.1,-0.40177 4.74863,-2.45145 8.10806,-4.55484 3.35944,-2.10339 6.462856,-3.82434 6.896496,-3.82434 0.43363,0 3.08501,-1.51762 5.89193,-3.37249 8.10355,-5.35497 17.27825,-9.6275 20.67378,-9.6275 2.20903,0 3.9792,0.91196 6.02852,3.10575 l 2.90121,3.10575 v 71.44387 c 0,77.1391 0.0567,76.293 -5.20995,77.7039 z"
       id="path830"
       inkscape:connector-curvature="0" />
  </g>
</svg>
